<svg xmlns="http://www.w3.org/2000/svg" xmlns:xlink="http://www.w3.org/1999/xlink" viewBox="569 284 64 64"><defs><style>.a{clip-path:url(#b);}</style><clipPath id="b"><rect x="569" y="284" width="64" height="64"/></clipPath></defs><g id="a" class="a"><path d="M19.888-22.1a15.638,15.638,0,0,0-5.746-1.045A15.638,15.638,0,0,0,8.4-22.1a10.765,10.765,0,0,0-4.249,2.833,5.709,5.709,0,0,0-1.577,3.837,5.474,5.474,0,0,0,1.065,3.174A9.242,9.242,0,0,0,6.629-9.6L8.578-8.478l-.7,1.688q.683-.4,1.246-.783L10-8.2l1.065.2a17.378,17.378,0,0,0,3.074.281,15.638,15.638,0,0,0,5.746-1.045,10.765,10.765,0,0,0,4.249-2.833,5.709,5.709,0,0,0,1.577-3.837,5.709,5.709,0,0,0-1.577-3.837A10.765,10.765,0,0,0,19.888-22.1ZM7.031-24.328a18.055,18.055,0,0,1,7.112-1.386,18.1,18.1,0,0,1,7.1,1.376A12.758,12.758,0,0,1,26.4-20.592a8.113,8.113,0,0,1,1.888,5.163A8.113,8.113,0,0,1,26.4-10.266a12.758,12.758,0,0,1-5.153,3.747,18.1,18.1,0,0,1-7.1,1.376,20.18,20.18,0,0,1-3.536-.321A16.9,16.9,0,0,1,5.022-2.893a16.891,16.891,0,0,1-1.728.321h-.06a.628.628,0,0,1-.412-.161.664.664,0,0,1-.231-.422.411.411,0,0,1-.02-.131.8.8,0,0,1,.01-.131.426.426,0,0,1,.04-.121l.05-.1a.905.905,0,0,1,.07-.11.855.855,0,0,1,.08-.1q.03-.03.09-.1t.08-.09q.1-.121.462-.5t.522-.593q.161-.211.452-.583a5.084,5.084,0,0,0,.5-.773q.211-.4.412-.884a11.739,11.739,0,0,1-3.917-3.556A7.891,7.891,0,0,1,0-15.429a8.113,8.113,0,0,1,1.888-5.163A12.689,12.689,0,0,1,7.031-24.328ZM30.656-2.23q.2.482.412.884a5.084,5.084,0,0,0,.5.773q.291.372.452.583T32.545.6q.362.382.462.5.02.02.08.09t.09.1a.855.855,0,0,1,.08.1.906.906,0,0,1,.07.11l.05.1a.426.426,0,0,1,.04.121.8.8,0,0,1,.01.131.411.411,0,0,1-.02.131.745.745,0,0,1-.261.442.606.606,0,0,1-.442.141,16.89,16.89,0,0,1-1.728-.321A16.9,16.9,0,0,1,25.393-.321,20.18,20.18,0,0,1,21.857,0a16.879,16.879,0,0,1-9.482-2.652q1.165.08,1.768.08a21.221,21.221,0,0,0,6.208-.9,17.783,17.783,0,0,0,5.3-2.592,13.442,13.442,0,0,0,3.857-4.259,10.311,10.311,0,0,0,1.346-5.1,10.361,10.361,0,0,0-.462-3.054,11.9,11.9,0,0,1,4.1,3.576A7.9,7.9,0,0,1,36-10.286a7.875,7.875,0,0,1-1.426,4.51A11.784,11.784,0,0,1,30.656-2.23Z" transform="translate(583 329)"/></g></svg>