<svg xmlns="http://www.w3.org/2000/svg" xmlns:xlink="http://www.w3.org/1999/xlink" viewBox="711 284 64 64"><defs><style>.a{clip-path:url(#b);}</style><clipPath id="b"><rect x="711" y="284" width="64" height="64"/></clipPath></defs><g id="a" class="a"><g transform="translate(711 284)"><path d="M-675-147h-36v-52h36v52Zm-34-50h0v48h32v-48Z" transform="translate(725 205)"/><path d="M0,0H24.292V5H0Z" transform="translate(20 48)"/></g><path d="M14.667-13.333a1.286,1.286,0,0,1,.944.389A1.286,1.286,0,0,1,16-12v8a1.286,1.286,0,0,1-.389.944,1.286,1.286,0,0,1-.944.389H1.333a1.286,1.286,0,0,1-.944-.389A1.286,1.286,0,0,1,0-4v-8a1.286,1.286,0,0,1,.389-.944,1.286,1.286,0,0,1,.944-.389h.444v-4.444a5.993,5.993,0,0,1,1.826-4.4A5.993,5.993,0,0,1,8-24a5.993,5.993,0,0,1,4.4,1.826,5.993,5.993,0,0,1,1.826,4.4.854.854,0,0,1-.264.625.854.854,0,0,1-.625.264h-.889a.854.854,0,0,1-.625-.264.854.854,0,0,1-.264-.625,3.426,3.426,0,0,0-1.042-2.514A3.426,3.426,0,0,0,8-21.333a3.426,3.426,0,0,0-2.514,1.042,3.426,3.426,0,0,0-1.042,2.514v4.444Z" transform="translate(735 326)"/></g></svg>