<svg xmlns="http://www.w3.org/2000/svg" xmlns:xlink="http://www.w3.org/1999/xlink" viewBox="711 199 64 64"><defs><style>.a{clip-path:url(#b);}</style><clipPath id="b"><rect x="711" y="199" width="64" height="64"/></clipPath></defs><g id="a" class="a"><g transform="translate(711 199)"><path d="M-675-147h-36v-52h36v52Zm-34-50h0v48h32v-48Z" transform="translate(725 205)"/><path d="M-687-185h-24v-14h24v14Zm-22-12v10h20v-10Z" transform="translate(731 220)"/><path d="M0,0H24.292V2H0Z" transform="translate(20 39)"/><path d="M0,0H13V2H0Z" transform="translate(20 15)"/><path d="M0,0H24.292V2H0Z" transform="translate(20 45)"/><path d="M0,0H24.292V2H0Z" transform="translate(20 51)"/></g></g></svg>