<svg xmlns="http://www.w3.org/2000/svg" xmlns:xlink="http://www.w3.org/1999/xlink" viewBox="711 284 64 64">
  <defs>
    <style>
      .cls-1 {
        clip-path: url(#clip-Patient_Engagement_1);
      }

      .cls-2, .cls-4 {
        fill: none;
      }

      .cls-2 {
        stroke: #000;
      }

      .cls-3 {
        stroke: none;
      }
    </style>
    <clipPath id="clip-Patient_Engagement_1">
      <rect x="711" y="284" width="64" height="64"/>
    </clipPath>
  </defs>
  <g id="Patient_Engagement_1" data-name="Patient Engagement – 1" class="cls-1">
    <g id="Group_7" data-name="Group 7" transform="translate(711 284)">
      <path id="Subtraction_2" data-name="Subtraction 2" d="M-675-147h-36v-52h36v52Zm-34-50h0v48h32v-48Z" transform="translate(725 205)"/>
      <path id="Path_6" data-name="Path 6" d="M0,0H24.292V5H0Z" transform="translate(20 48)"/>
    </g>
    <path id="Path_868" data-name="Path 868" d="M0,0H24.292V2H0Z" transform="translate(731 296)"/>
    <g id="Group_9" data-name="Group 9" transform="translate(711 284)">
      <g id="Group_8" data-name="Group 8" transform="translate(25.778 20.056)">
        <path id="Path_866" data-name="Path 866" d="M-33.069-75.256a.8.8,0,0,0,.236-.581.8.8,0,0,0-.236-.581.774.774,0,0,0-.573-.239.774.774,0,0,0-.573.239.8.8,0,0,0-.236.581.8.8,0,0,0,.236.581.774.774,0,0,0,.573.239A.774.774,0,0,0-33.069-75.256Zm2.122-3.042a9.669,9.669,0,0,1-.636,3.678,9.784,9.784,0,0,1-2.134,3.08q-.682.684-1.642,1.5l-.168,3.238a.313.313,0,0,1-.135.222L-38.9-64.661a.264.264,0,0,1-.135.034.3.3,0,0,1-.194-.077l-.539-.547a.275.275,0,0,1-.067-.273l.716-2.358-2.366-2.4-2.324.726a.252.252,0,0,1-.076.009.26.26,0,0,1-.194-.077l-.539-.547a.262.262,0,0,1-.042-.333l1.886-3.281a.307.307,0,0,1,.219-.137l3.191-.171q.808-.974,1.482-1.666a9.815,9.815,0,0,1,3.014-2.2,9.358,9.358,0,0,1,3.629-.607.281.281,0,0,1,.2.081A.258.258,0,0,1-30.947-78.3Z" transform="translate(45.17 78.571)"/>
        <path id="Path_867" data-name="Path 867" d="M1.026,0A5.156,5.156,0,0,1,2.094,2.872,5,5,0,0,1,1.068,5.729,5.156,5.156,0,0,1,0,2.857,5,5,0,0,1,1.026,0Z" transform="translate(2.742 9.944) rotate(45)"/>
      </g>
      <g id="Ellipse_1" data-name="Ellipse 1" class="cls-2" transform="translate(24 21.778)">
        <ellipse class="cls-3" cx="7.111" cy="7.111" rx="7.111" ry="7.111"/>
        <ellipse class="cls-4" cx="7.111" cy="7.111" rx="6.611" ry="6.611"/>
      </g>
    </g>
  </g>
</svg>
