<svg id="Layer_1" data-name="Layer 1" xmlns="http://www.w3.org/2000/svg" width="44.36mm" height="44.72mm" viewBox="0 0 125.73 126.75"><title>rocket</title><path d="M139,15.27a2.17,2.17,0,0,0-.71-1.6,2.32,2.32,0,0,0-1.67-.67q-18.24,0-30.1,5A66.89,66.89,0,0,0,90.4,28.19a55.8,55.8,0,0,0-20.28-3.8c-31.39,0-56.84,25.82-56.84,57.68a58,58,0,0,0,10.34,33.15,49.51,49.51,0,0,0-7.71,20.64A48,48,0,0,0,36,128.21a56,56,0,0,0,34.11,11.54c31.39,0,56.84-25.82,56.84-57.68a58.26,58.26,0,0,0-3.31-19.41,71.36,71.36,0,0,0,10.08-16.88Q139,32.91,139,15.27Zm-27.1,15.58a6.68,6.68,0,0,1,9.5,0,6.93,6.93,0,0,1,0,9.64,6.69,6.69,0,0,1-9.5,0,6.94,6.94,0,0,1,0-9.65Zm12.16,51.22c0,30.24-24.16,54.76-53.95,54.76a53.13,53.13,0,0,1-31.69-10.46c.88-.73,1.74-1.51,2.57-2.35,10.15-10.3,11.67-25.46,11.67-25.46s-15,1.53-25.1,11.83c-.76.77-1.46,1.57-2.12,2.38a55,55,0,0,1-9.28-30.7c0-30.24,24.15-54.76,54-54.76a53.21,53.21,0,0,1,17.73,3q-3.13,2.74-6.32,6-5.59,5.74-12.29,13.82L42.77,51.56A2.52,2.52,0,0,0,41,52.69L25.31,79.91a2.16,2.16,0,0,0,.35,2.76l4.46,4.53a2.16,2.16,0,0,0,1.61.64,2.26,2.26,0,0,0,.63-.07l19.28-6,19.62,19.92-5.93,19.56a2.27,2.27,0,0,0,.56,2.27L70.36,128a2.45,2.45,0,0,0,1.6.64,2.19,2.19,0,0,0,1.12-.28L99.89,112.5a2.56,2.56,0,0,0,1.12-1.84l1.4-26.86q8-6.81,13.62-12.47c2-2,3.77-4,5.46-6A55.41,55.41,0,0,1,124.07,82.07Z" transform="translate(-13.28 -13)" fill="#231f20"/></svg>