<svg xmlns="http://www.w3.org/2000/svg" xmlns:xlink="http://www.w3.org/1999/xlink" viewBox="498 284 64 64"><defs><style>.a{clip-path:url(#b);}</style><clipPath id="b"><rect x="498" y="284" width="64" height="64"/></clipPath></defs><g id="a" class="a"><path d="M25.714-10.286h6.127a2.041,2.041,0,0,1-.2.211q-.1.09-.181.151l-.06.08L18.884,2.21a1.261,1.261,0,0,1-1.768,0L4.58-9.884a1.9,1.9,0,0,1-.422-.4h7.413a1.266,1.266,0,0,0,.794-.271,1.206,1.206,0,0,0,.452-.693L14.223-16.9,18.04-3.5a1.28,1.28,0,0,0,.462.663,1.255,1.255,0,0,0,.783.261,1.226,1.226,0,0,0,.763-.261,1.28,1.28,0,0,0,.462-.663l2.933-9.743,1.125,2.25A1.2,1.2,0,0,0,25.714-10.286ZM36-18.884a10.921,10.921,0,0,1-2.069,6.027H26.518l-2.23-4.44a1.212,1.212,0,0,0-.512-.542A1.2,1.2,0,0,0,23.042-18a1.191,1.191,0,0,0-1.125.924L19.326-8.437,15.388-22.219a1.261,1.261,0,0,0-.472-.663,1.3,1.3,0,0,0-.794-.261,1.225,1.225,0,0,0-.783.271,1.224,1.224,0,0,0-.442.693l-2.33,9.321h-8.5A10.921,10.921,0,0,1,0-18.884a9.214,9.214,0,0,1,2.551-6.911A9.663,9.663,0,0,1,9.6-28.286a8.007,8.007,0,0,1,2.541.432,10.285,10.285,0,0,1,2.411,1.165q1.115.733,1.919,1.376A18.51,18.51,0,0,1,18-23.946a18.509,18.509,0,0,1,1.527-1.366q.8-.643,1.919-1.376a10.285,10.285,0,0,1,2.411-1.165,8.007,8.007,0,0,1,2.541-.432,9.663,9.663,0,0,1,7.051,2.491A9.214,9.214,0,0,1,36-18.884Z" transform="translate(512 329)"/></g></svg>